<svg width="342" height="294" viewBox="0 0 342 294" fill="none" xmlns="http://www.w3.org/2000/svg">
<g clip-path="url(#clip0_641_1040)">
<path d="M182.583 133.848H208.355C208.355 104.128 232.552 79.9436 262.289 79.9436V54.187C218.338 54.187 182.583 89.9216 182.583 133.848Z" fill="#FFE1A6"/>
<path d="M20.0426 177.016C20.0426 182.547 15.5559 187.031 10.0212 187.031C4.4865 187.031 -0.000244141 182.547 -0.000244141 177.016C-0.000244141 171.484 4.4865 167 10.0212 167C15.5559 167 20.0426 171.484 20.0426 177.016Z" fill="#E46901"/>
<path d="M20.0426 205.047C20.0426 210.578 15.5559 215.063 10.0212 215.063C4.4865 215.063 -0.000244141 210.578 -0.000244141 205.047C-0.000244141 199.515 4.4865 195.031 10.0212 195.031C15.5559 195.031 20.0426 199.515 20.0426 205.047Z" fill="#E46901"/>
<path d="M79.7081 213.661H53.937C53.937 183.941 29.7396 159.757 0.00268555 159.757V134C43.9534 134 79.7081 169.735 79.7081 213.661Z" fill="#10137C"/>
<path d="M128.372 213.509V187.752C158.108 187.752 182.306 163.568 182.306 133.848H208.077C208.077 177.774 172.322 213.509 128.372 213.509Z" fill="#C2C3F1"/>
<path d="M262.289 213.509V187.752C292.025 187.752 316.223 163.568 316.223 133.848H341.994C341.994 177.774 306.239 213.509 262.289 213.509Z" fill="#5C57D5"/>
<path d="M262.201 54.2625V28.5057C291.938 28.5057 316.135 4.32192 316.135 -25.3984H341.907C341.907 18.5277 306.152 54.2625 262.201 54.2625Z" fill="#C2C3F1"/>
<path d="M213.366 213.509H187.594C187.594 183.789 163.397 159.605 133.66 159.605V133.848C177.611 133.848 213.366 169.583 213.366 213.509Z" fill="#5C57D5"/>
<path d="M208.064 133.848H182.294C182.294 104.128 158.097 79.9436 128.36 79.9436V54.187C172.31 54.187 208.064 89.9216 208.064 133.848Z" fill="#FFB03F"/>
<path d="M341.994 133.848H316.223C316.223 104.128 292.025 79.9436 262.289 79.9436V54.187C306.239 54.187 341.994 89.9216 341.994 133.848Z" fill="#366FB6"/>
<path d="M53.967 213.509H79.7382C79.7382 183.789 103.935 159.605 133.672 159.605V133.848C89.7219 133.848 53.967 169.583 53.967 213.509Z" fill="#FFE1A6"/>
<path d="M183.003 0.299988H208.774C208.774 30.0202 232.972 54.2041 262.708 54.2041V79.9608C218.758 79.9608 183.003 44.226 183.003 0.299988Z" fill="#E46901"/>
<path d="M182.583 133.848H208.355C208.355 163.568 232.552 187.752 262.289 187.752V213.509C218.338 213.509 182.583 177.774 182.583 133.848Z" fill="#10137C"/>
<path d="M272.311 96.8046C272.311 102.336 267.824 106.821 262.289 106.821C256.754 106.821 252.267 102.336 252.267 96.8046C252.267 91.2726 256.754 86.7886 262.289 86.7886C267.823 86.7886 272.311 91.2726 272.311 96.8046Z" fill="#E46901"/>
<path d="M272.311 124.512C272.311 130.043 267.824 134.528 262.289 134.528C256.754 134.528 252.267 130.043 252.267 124.512C252.267 118.98 256.754 114.496 262.289 114.496C267.823 114.496 272.311 118.98 272.311 124.512Z" fill="#E46901"/>
<path d="M53.967 213.34H79.7382C79.7382 243.06 103.935 267.244 133.672 267.244V293C89.7219 293 53.967 257.266 53.967 213.34Z" fill="#10137C"/>
<path d="M133.672 293V267.244C163.41 267.244 187.607 243.06 187.607 213.34H213.377C213.377 257.266 177.623 293 133.672 293Z" fill="#E46901"/>
</g>
<defs>
<clipPath id="clip0_641_1040">
<rect width="342" height="294" fill="white"/>
</clipPath>
</defs>
</svg>
