<svg width="323" height="68" viewBox="0 0 323 68" fill="none" xmlns="http://www.w3.org/2000/svg">
<path d="M15.4311 56.5317C15.5391 59.0437 15.4311 55.9924 15.4311 62.9924V65.9924V66.7859H7.04853C7.04853 61.9924 7.04853 64.4954 7.04853 58.9293V23.784H0V16.4693H7.05623V0.648987H15.4311V16.477H23.1506V23.7916H15.4311V56.5317Z" fill="#10137B"/>
<path d="M35.6049 5.4516C35.6049 8.39883 33.1834 10.6895 30.2067 10.6895C27.23 10.6895 24.9165 8.39884 24.9165 5.34472C24.9165 2.2906 27.23 0 30.3147 0C33.3994 0 35.6049 2.39748 35.6049 5.45924V5.4516Z" fill="#ED4B00"/>
<path d="M26.0195 16.477H34.3944V66.7937H26.0195V16.477Z" fill="#10137B"/>
<path d="M49.8257 16.477V23.4633C53.6815 17.6758 57.9847 15.2783 64.2698 15.2783C71.218 15.2783 75.6215 18.2255 77.9427 24.4483C81.6906 18.0117 86.4333 15.2783 94.0371 15.2783C99.8825 15.2783 104.286 17.1337 106.931 20.623C109.353 23.7916 110.016 26.6243 110.016 34.5956V66.7937H101.641V36.5579C101.641 30.4496 101.417 29.0295 100.206 26.9527C98.6641 24.3337 95.3558 22.6922 91.3842 22.6922C83.9964 22.6922 79.9168 27.6017 79.9168 36.5502V66.786H71.5419V36.6648C71.5419 31.7553 71.1024 29.2432 69.8916 27.0595C68.4573 24.2192 65.3725 22.6922 61.6247 22.6922C54.2368 22.6922 49.8334 27.93 49.8334 36.6648V66.786H41.4585V16.477H49.8334H49.8257Z" fill="#10137B"/>
<path d="M122.362 44.3077C122.802 48.5606 123.573 50.7443 125.67 53.4777C128.978 57.952 133.829 60.3571 139.343 60.3571C145.628 60.3571 151.581 56.9747 154.559 51.7368L161.946 54.4626C157.758 62.8691 149.052 67.9924 139.351 67.9924C124.251 67.9924 113.447 57.0815 113.447 41.7957C113.447 26.5098 124.143 15.2706 139.02 15.2706C153.895 15.2706 164.815 26.296 164.815 41.0321C164.815 41.6888 164.815 43.109 164.707 44.3077H122.378H122.362ZM155.87 38.1918C155.537 34.2596 154.767 32.0836 153 29.5716C149.801 25.3187 144.625 22.6922 139.004 22.6922C133.382 22.6922 128.308 25.3111 125.331 29.6785C123.789 32.0836 123.125 34.1527 122.463 38.1918H155.862H155.87Z" fill="#10137B"/>
<path d="M192.686 30.2282V29.6861C192.686 24.9904 188.83 22.0432 182.984 22.0432C177.139 22.0432 173.838 24.8835 173.838 29.2432C173.838 33.603 176.044 35.2446 185.189 37.7566C191.691 39.5051 195.115 41.139 197.536 43.5442C200.073 46.0562 201.615 49.6524 201.615 53.3708C201.615 62.1056 194.343 67.9924 183.539 67.9924C171.964 67.9924 165.463 62.6477 164.576 52.4927H172.843C173.391 58.1658 177.139 61.2275 183.539 61.2275C189.269 61.2275 193.017 58.2803 193.017 53.806C193.017 49.3317 190.149 47.2549 181.441 45.0712C170.422 42.124 165.455 37.5428 165.455 29.8999C165.455 21.1651 172.62 15.2783 183.316 15.2783C194.012 15.2783 200.62 20.7375 201.061 30.2282H192.686Z" fill="#10137B"/>
<path d="M211.093 44.3077C211.532 48.5606 212.304 50.7443 214.402 53.4777C217.71 57.952 222.561 60.3571 228.074 60.3571C234.36 60.3571 240.313 56.9747 243.29 51.7368L250.677 54.4626C246.49 62.8691 237.784 67.9924 228.082 67.9924C212.983 67.9924 202.179 57.0815 202.179 41.7957C202.179 26.5098 212.875 15.2706 227.75 15.2706C242.627 15.2706 253.546 26.296 253.546 41.0321C253.546 41.6888 253.546 43.109 253.439 44.3077H211.108H211.093ZM244.608 38.1918C244.277 34.2596 243.505 32.0836 241.74 29.5716C238.539 25.3187 233.365 22.6922 227.743 22.6922C222.121 22.6922 217.047 25.3111 214.07 29.6785C212.527 32.0836 211.865 34.1527 211.201 38.1918H244.6H244.608Z" fill="#10137B"/>
<path d="M212.859 2.50439H242.843V9.26927H212.859V2.50439Z" fill="#ED4B00"/>
<path d="M265.769 66.7859H257.394V2.38983H265.769V38.5201L286.051 16.4694H296.632L273.921 41.0245L296.516 66.7784H286.044L265.762 44.2924V66.7784L265.769 66.7859Z" fill="#10137B"/>
<path d="M305.894 16.477V24.9904C307.436 21.3865 308.539 19.8595 310.52 18.3324C313.058 16.3701 316.581 15.2783 320.222 15.2783H322.204V23.6847C321.324 23.5778 320.438 23.5778 319.89 23.5778C315.371 23.5778 311.399 25.6547 308.87 29.3654C306.664 32.5341 305.894 35.4737 305.894 41.2612V66.8013H297.519V16.477H305.894Z" fill="#10137B"/>
</svg>
