<svg width="72" height="72" viewBox="0 0 72 72" fill="none" xmlns="http://www.w3.org/2000/svg">
<g clip-path="url(#clip0_215_1584)">
<path d="M59.0741 23.7949C58.7203 24.0694 52.4739 27.5891 52.4739 35.4154C52.4739 44.4678 60.4222 47.6703 60.6601 47.7496C60.6235 47.9448 59.3974 52.1355 56.4694 56.4055C53.8586 60.1631 51.1319 63.9146 46.9839 63.9146C42.8359 63.9146 41.7684 61.5051 36.9799 61.5051C32.3134 61.5051 30.6542 63.9939 26.86 63.9939C23.0658 63.9939 20.4184 60.5169 17.3745 56.2469C13.8487 51.2327 11 43.443 11 36.0498C11 24.1914 18.7104 17.9023 26.2988 17.9023C30.3309 17.9023 33.692 20.5497 36.2235 20.5497C38.633 20.5497 42.3906 17.7437 46.9778 17.7437C48.7163 17.7437 54.9627 17.9023 59.0741 23.7949ZM44.8001 12.7234C46.6972 10.4725 48.0392 7.3493 48.0392 4.2261C48.0392 3.793 48.0026 3.3538 47.9233 3C44.8367 3.1159 41.1645 5.0557 38.9502 7.6238C37.2117 9.6002 35.5891 12.7234 35.5891 15.8893C35.5891 16.3651 35.6684 16.8409 35.705 16.9934C35.9002 17.03 36.2174 17.0727 36.5346 17.0727C39.304 17.0727 42.7871 15.2183 44.8001 12.7234Z" fill="black"/>
</g>
<defs>
<clipPath id="clip0_215_1584">
<rect width="49.654" height="61" fill="white" transform="translate(11 3)"/>
</clipPath>
</defs>
</svg>
