<svg width="72" height="72" viewBox="0 0 72 72" fill="none" xmlns="http://www.w3.org/2000/svg">
<g clip-path="url(#clip0_215_1565)">
<mask id="mask0_215_1565" style="mask-type:luminance" maskUnits="userSpaceOnUse" x="9" y="9" width="54" height="55">
<path d="M62.1154 31.3071H36.3864V41.837H51.1704C50.9328 43.3272 50.3991 44.7932 49.6177 46.13C48.7223 47.6615 47.6154 48.8275 46.4808 49.7155C43.0824 52.3753 39.1202 52.9192 36.3685 52.9192C29.4173 52.9192 23.4781 48.3306 21.1788 42.0954C21.086 41.8692 21.0244 41.6354 20.9494 41.4044C20.4413 39.8175 20.1637 38.1368 20.1637 36.39C20.1637 34.572 20.4643 32.8317 21.0125 31.1881C23.1745 24.7058 29.2477 19.8641 36.3735 19.8641C37.8067 19.8641 39.187 20.0384 40.4959 20.3859C43.4872 21.1802 45.6031 22.7446 46.8996 23.982L54.7228 16.1569C49.964 11.7004 43.7604 8.99997 36.3605 8.99997C30.4447 8.99984 24.983 10.8824 20.5073 14.064C16.8777 16.6442 13.9008 20.0988 11.8919 24.1109C10.0232 27.8309 9 31.9534 9 36.3859C9 40.8185 10.0248 44.9839 11.8934 48.6695V48.6943C13.8672 52.6071 16.7535 55.9761 20.2615 58.5445C23.3261 60.7882 28.8213 63.7765 36.3605 63.7765C40.6961 63.7765 44.5386 62.9781 47.9273 61.4819C50.372 60.4026 52.5379 58.9948 54.4989 57.1855C57.09 54.7948 59.1193 51.8378 60.5044 48.4356C61.8895 45.0334 62.6304 41.1862 62.6304 37.0151C62.6304 35.0726 62.4394 33.0998 62.1154 31.3069V31.3071Z" fill="white"/>
</mask>
<g mask="url(#mask0_215_1565)">
<g filter="url(#filter0_f_215_1565)">
<path d="M8.60547 36.5718C8.63391 40.9345 9.85104 45.4358 11.6934 49.0695V49.0945C13.0245 51.7334 14.8439 53.8179 16.916 55.8833L29.4315 51.2191C27.0636 49.9906 26.7023 49.2378 25.005 47.8642C23.2704 46.0778 21.9776 44.0269 21.1725 41.6222H21.1401L21.1725 41.5972C20.6429 40.0092 20.5906 38.3236 20.5711 36.5718H8.60547Z" fill="url(#paint0_radial_215_1565)"/>
</g>
<g filter="url(#filter1_f_215_1565)">
<path d="M36.3866 8.80069C35.1496 13.2394 35.6225 17.554 36.3866 20.0644C37.8151 20.0655 39.1911 20.2394 40.496 20.5859C43.4873 21.3801 45.6029 22.9446 46.8995 24.182L54.9229 16.1569C50.1698 11.7057 44.4497 8.8077 36.3866 8.80069Z" fill="url(#paint1_radial_215_1565)"/>
</g>
<g filter="url(#filter2_f_215_1565)">
<path d="M36.3597 8.76559C30.292 8.76546 24.6901 10.6964 20.0995 13.9597C18.3951 15.1713 16.8309 16.571 15.4381 18.1275C15.0732 21.6237 18.1695 25.921 24.3011 25.8854C27.2761 22.3508 31.676 20.064 36.5732 20.064C36.5777 20.064 36.582 20.0644 36.5865 20.0644L36.3865 8.76639C36.3775 8.76639 36.3687 8.76559 36.3597 8.76559Z" fill="url(#paint2_radial_215_1565)"/>
</g>
<g filter="url(#filter3_f_215_1565)">
<path d="M56.3872 37.8369L50.9714 41.637C50.7337 43.1272 50.1997 44.5932 49.4183 45.93C48.5229 47.4615 47.4161 48.6276 46.2815 49.5155C42.8901 52.1699 38.9384 52.7164 36.1874 52.7186C33.344 57.665 32.8455 60.1425 36.3874 64.1346C40.7701 64.1313 44.6556 63.3233 48.0828 61.8101C50.5602 60.7163 52.7552 59.2896 54.7425 57.456C57.3683 55.0333 59.4252 52.0364 60.8289 48.5886C62.2325 45.1408 62.9832 41.2422 62.9832 37.0151L56.3872 37.8369Z" fill="url(#paint3_radial_215_1565)"/>
</g>
<g filter="url(#filter4_f_215_1565)">
<path d="M35.9873 30.907V42.237H62.044C62.2731 40.6854 63.0311 38.6774 63.0311 37.0152C63.0311 35.0726 62.8402 32.6999 62.5162 30.907H35.9873Z" fill="#3086FF"/>
</g>
<g filter="url(#filter5_f_215_1565)">
<path d="M15.5632 17.7275C13.9552 19.5244 12.5815 21.5357 11.4924 23.7109C9.62374 27.4309 8.60059 31.9534 8.60059 36.3859C8.60059 36.4483 8.60565 36.5094 8.60606 36.5718C9.43361 38.1924 20.0372 37.8821 20.5717 36.5718C20.571 36.5107 20.5643 36.451 20.5643 36.3898C20.5643 34.5718 20.865 33.2318 21.4131 31.5882C22.0893 29.5608 23.148 27.6939 24.5019 26.0854C24.8088 25.6852 25.6274 24.8249 25.8662 24.3088C25.9572 24.1123 25.7011 24.002 25.6867 23.9328C25.6707 23.8554 25.3273 23.9176 25.2503 23.86C25.0061 23.677 24.5223 23.5814 24.2285 23.4964C23.6007 23.3149 22.5601 22.9144 21.9822 22.4993C20.1553 21.1873 17.3043 19.62 15.5632 17.7275Z" fill="url(#paint4_radial_215_1565)"/>
</g>
<g filter="url(#filter6_f_215_1565)">
<path d="M22.0215 23.9405C26.2578 26.5616 27.4761 22.6175 30.2927 21.3834L25.3932 11.0059C23.5908 11.7796 21.888 12.7408 20.308 13.864C17.9485 15.5413 15.8648 17.5881 14.1436 19.9175L22.0215 23.9405Z" fill="url(#paint5_radial_215_1565)"/>
</g>
<g filter="url(#filter7_f_215_1565)">
<path d="M23.7451 50.4173C18.0583 52.5142 17.168 52.5894 16.6445 56.189C17.6449 57.186 18.7196 58.1083 19.8617 58.9444C22.9264 61.1882 28.8214 64.1765 36.3606 64.1765C36.3694 64.1765 36.3779 64.1757 36.3867 64.1757V52.5187C36.381 52.5187 36.3745 52.5191 36.3688 52.5191C33.5456 52.5191 31.2896 51.7617 28.9765 50.4447C28.4062 50.1199 27.3715 50.9919 26.8455 50.6021C26.1201 50.0645 24.3743 51.0653 23.7451 50.4173Z" fill="url(#paint6_radial_215_1565)"/>
</g>
<g opacity="0.5" filter="url(#filter8_f_215_1565)">
<path d="M33.0566 52.1515V63.9737C34.1115 64.0999 35.2093 64.1765 36.3609 64.1765C37.5154 64.1765 38.6323 64.1159 39.7176 64.0046V52.2312C38.5014 52.4435 37.3559 52.5191 36.3691 52.5191C35.2327 52.5191 34.1275 52.3839 33.0566 52.1515Z" fill="url(#paint7_linear_215_1565)"/>
</g>
</g>
</g>
<defs>
<filter id="filter0_f_215_1565" x="8.51145" y="36.4778" width="21.0142" height="19.4994" filterUnits="userSpaceOnUse" color-interpolation-filters="sRGB">
<feFlood flood-opacity="0" result="BackgroundImageFix"/>
<feBlend mode="normal" in="SourceGraphic" in2="BackgroundImageFix" result="shape"/>
<feGaussianBlur stdDeviation="0.0470079" result="effect1_foregroundBlur_215_1565"/>
</filter>
<filter id="filter1_f_215_1565" x="35.532" y="8.70667" width="19.4849" height="15.5693" filterUnits="userSpaceOnUse" color-interpolation-filters="sRGB">
<feFlood flood-opacity="0" result="BackgroundImageFix"/>
<feBlend mode="normal" in="SourceGraphic" in2="BackgroundImageFix" result="shape"/>
<feGaussianBlur stdDeviation="0.0470079" result="effect1_foregroundBlur_215_1565"/>
</filter>
<filter id="filter2_f_215_1565" x="15.3152" y="8.67158" width="21.3658" height="17.3081" filterUnits="userSpaceOnUse" color-interpolation-filters="sRGB">
<feFlood flood-opacity="0" result="BackgroundImageFix"/>
<feBlend mode="normal" in="SourceGraphic" in2="BackgroundImageFix" result="shape"/>
<feGaussianBlur stdDeviation="0.0470079" result="effect1_foregroundBlur_215_1565"/>
</filter>
<filter id="filter3_f_215_1565" x="33.7976" y="36.9211" width="29.2798" height="27.3075" filterUnits="userSpaceOnUse" color-interpolation-filters="sRGB">
<feFlood flood-opacity="0" result="BackgroundImageFix"/>
<feBlend mode="normal" in="SourceGraphic" in2="BackgroundImageFix" result="shape"/>
<feGaussianBlur stdDeviation="0.0470079" result="effect1_foregroundBlur_215_1565"/>
</filter>
<filter id="filter4_f_215_1565" x="35.8933" y="30.813" width="27.232" height="11.5181" filterUnits="userSpaceOnUse" color-interpolation-filters="sRGB">
<feFlood flood-opacity="0" result="BackgroundImageFix"/>
<feBlend mode="normal" in="SourceGraphic" in2="BackgroundImageFix" result="shape"/>
<feGaussianBlur stdDeviation="0.0470079" result="effect1_foregroundBlur_215_1565"/>
</filter>
<filter id="filter5_f_215_1565" x="8.50657" y="17.6335" width="17.4732" height="20.1345" filterUnits="userSpaceOnUse" color-interpolation-filters="sRGB">
<feFlood flood-opacity="0" result="BackgroundImageFix"/>
<feBlend mode="normal" in="SourceGraphic" in2="BackgroundImageFix" result="shape"/>
<feGaussianBlur stdDeviation="0.0470079" result="effect1_foregroundBlur_215_1565"/>
</filter>
<filter id="filter6_f_215_1565" x="13.4826" y="10.3449" width="17.4714" height="15.1375" filterUnits="userSpaceOnUse" color-interpolation-filters="sRGB">
<feFlood flood-opacity="0" result="BackgroundImageFix"/>
<feBlend mode="normal" in="SourceGraphic" in2="BackgroundImageFix" result="shape"/>
<feGaussianBlur stdDeviation="0.330485" result="effect1_foregroundBlur_215_1565"/>
</filter>
<filter id="filter7_f_215_1565" x="16.5505" y="50.2766" width="19.9302" height="13.9939" filterUnits="userSpaceOnUse" color-interpolation-filters="sRGB">
<feFlood flood-opacity="0" result="BackgroundImageFix"/>
<feBlend mode="normal" in="SourceGraphic" in2="BackgroundImageFix" result="shape"/>
<feGaussianBlur stdDeviation="0.0470079" result="effect1_foregroundBlur_215_1565"/>
</filter>
<filter id="filter8_f_215_1565" x="32.9626" y="52.0575" width="6.84916" height="12.2131" filterUnits="userSpaceOnUse" color-interpolation-filters="sRGB">
<feFlood flood-opacity="0" result="BackgroundImageFix"/>
<feBlend mode="normal" in="SourceGraphic" in2="BackgroundImageFix" result="shape"/>
<feGaussianBlur stdDeviation="0.0470079" result="effect1_foregroundBlur_215_1565"/>
</filter>
<radialGradient id="paint0_radial_215_1565" cx="0" cy="0" r="1" gradientUnits="userSpaceOnUse" gradientTransform="translate(29.1809 55.4723) rotate(-92.3395) scale(27.3013 40.1023)">
<stop offset="0.141612" stop-color="#1ABD4D"/>
<stop offset="0.247515" stop-color="#6EC30D"/>
<stop offset="0.311547" stop-color="#8AC502"/>
<stop offset="0.366013" stop-color="#A2C600"/>
<stop offset="0.445673" stop-color="#C8C903"/>
<stop offset="0.540305" stop-color="#EBCB03"/>
<stop offset="0.615636" stop-color="#F7CD07"/>
<stop offset="0.699345" stop-color="#FDCD04"/>
<stop offset="0.771242" stop-color="#FDCE05"/>
<stop offset="0.860566" stop-color="#FFCE0A"/>
</radialGradient>
<radialGradient id="paint1_radial_215_1565" cx="0" cy="0" r="1" gradientTransform="matrix(18.9263 -4.64589e-05 -2.66017e-05 24.4423 54.1723 23.6013)" gradientUnits="userSpaceOnUse">
<stop offset="0.408458" stop-color="#FB4E5A"/>
<stop offset="1" stop-color="#FF4540"/>
</radialGradient>
<radialGradient id="paint2_radial_215_1565" cx="0" cy="0" r="1" gradientUnits="userSpaceOnUse" gradientTransform="translate(43.8364 5.22748) rotate(151.02) scale(30.3127 41.1341)">
<stop offset="0.231273" stop-color="#FF4541"/>
<stop offset="0.311547" stop-color="#FF4540"/>
<stop offset="0.457516" stop-color="#FF4640"/>
<stop offset="0.540305" stop-color="#FF473F"/>
<stop offset="0.699346" stop-color="#FF5138"/>
<stop offset="0.771242" stop-color="#FF5B33"/>
<stop offset="0.860566" stop-color="#FF6C29"/>
<stop offset="1" stop-color="#FF8C18"/>
</radialGradient>
<radialGradient id="paint3_radial_215_1565" cx="0" cy="0" r="1" gradientUnits="userSpaceOnUse" gradientTransform="translate(36.7816 60.5894) rotate(-127.454) scale(79.0783 29.1898)">
<stop offset="0.131546" stop-color="#0CBA65"/>
<stop offset="0.209784" stop-color="#0BB86D"/>
<stop offset="0.297297" stop-color="#09B479"/>
<stop offset="0.396257" stop-color="#08AD93"/>
<stop offset="0.477124" stop-color="#0AA6A9"/>
<stop offset="0.568425" stop-color="#0D9CC6"/>
<stop offset="0.667385" stop-color="#1893DD"/>
<stop offset="0.768727" stop-color="#258BF1"/>
<stop offset="0.858506" stop-color="#3086FF"/>
</radialGradient>
<radialGradient id="paint4_radial_215_1565" cx="0" cy="0" r="1" gradientUnits="userSpaceOnUse" gradientTransform="translate(34.0373 13.9391) rotate(96.6178) scale(29.53 40.8303)">
<stop offset="0.366013" stop-color="#FF4E3A"/>
<stop offset="0.457516" stop-color="#FF8A1B"/>
<stop offset="0.540305" stop-color="#FFA312"/>
<stop offset="0.615636" stop-color="#FFB60C"/>
<stop offset="0.771242" stop-color="#FFCD0A"/>
<stop offset="0.860566" stop-color="#FECF0A"/>
<stop offset="0.915033" stop-color="#FECF08"/>
<stop offset="1" stop-color="#FDCD01"/>
</radialGradient>
<radialGradient id="paint5_radial_215_1565" cx="0" cy="0" r="1" gradientUnits="userSpaceOnUse" gradientTransform="translate(29.2515 13.6348) rotate(132.119) scale(14.6673 41.3697)">
<stop offset="0.315904" stop-color="#FF4C3C"/>
<stop offset="0.603818" stop-color="#FF692C"/>
<stop offset="0.726837" stop-color="#FF7825"/>
<stop offset="0.884534" stop-color="#FF8D1B"/>
<stop offset="1" stop-color="#FF9F13"/>
</radialGradient>
<radialGradient id="paint6_radial_215_1565" cx="0" cy="0" r="1" gradientUnits="userSpaceOnUse" gradientTransform="translate(43.8367 67.5482) rotate(-151.02) scale(30.3127 41.1341)">
<stop offset="0.231273" stop-color="#0FBC5F"/>
<stop offset="0.311547" stop-color="#0FBC5F"/>
<stop offset="0.366013" stop-color="#0FBC5E"/>
<stop offset="0.457516" stop-color="#0FBC5D"/>
<stop offset="0.540305" stop-color="#12BC58"/>
<stop offset="0.699346" stop-color="#28BF3C"/>
<stop offset="0.771242" stop-color="#38C02B"/>
<stop offset="0.860566" stop-color="#52C218"/>
<stop offset="0.915033" stop-color="#67C30F"/>
<stop offset="1" stop-color="#86C504"/>
</radialGradient>
<linearGradient id="paint7_linear_215_1565" x1="33.0566" y1="58.164" x2="39.7176" y2="58.164" gradientUnits="userSpaceOnUse">
<stop stop-color="#0FBC5C"/>
<stop offset="1" stop-color="#0CBA65"/>
</linearGradient>
<clipPath id="clip0_215_1565">
<rect width="53.6304" height="54.7765" fill="white" transform="translate(9 8.99997)"/>
</clipPath>
</defs>
</svg>
