<svg width="72" height="72" viewBox="0 0 72 72" fill="none" xmlns="http://www.w3.org/2000/svg">
<g clip-path="url(#clip0_215_1565)">
<path d="M61.96 37.1146C61.96 35.1971 61.7879 33.3533 61.4683 31.5833H36V42.0558H50.5533C49.9142 45.4237 47.9967 48.2754 45.1204 50.1929V57.0025H53.8967C59.01 52.2825 61.96 45.35 61.96 37.1146Z" fill="#4285F4"/>
<path d="M35.9983 63.5416C43.2995 63.5416 49.4208 61.1325 53.8949 57.0025L45.1187 50.1929C42.7095 51.8154 39.6366 52.7987 35.9983 52.7987C28.9674 52.7987 22.9937 48.0541 20.8549 41.6625H11.8574V48.6441C16.307 57.4696 25.4274 63.5416 35.9983 63.5416Z" fill="#34A853"/>
<path d="M20.8573 41.6379C20.3165 40.0154 19.9969 38.2946 19.9969 36.5C19.9969 34.7054 20.3165 32.9846 20.8573 31.3621V24.3804H11.8598C10.0161 28.0188 8.95898 32.1242 8.95898 36.5C8.95898 40.8758 10.0161 44.9813 11.8598 48.6196L18.8661 43.1621L20.8573 41.6379Z" fill="#FBBC05"/>
<path d="M35.9983 20.2258C39.9808 20.2258 43.5208 21.6025 46.3478 24.2575L54.0916 16.5138C49.3962 12.1379 43.2995 9.45834 35.9983 9.45834C25.4274 9.45834 16.307 15.5304 11.8574 24.3804L20.8549 31.3621C22.9937 24.9704 28.9674 20.2258 35.9983 20.2258Z" fill="#EA4335"/>
</g>
<defs>
<clipPath id="clip0_215_1565">
<rect width="53.6304" height="54.7765" fill="white" transform="translate(9 8.99997)"/>
</clipPath>
</defs>
</svg>
