<svg width="56" height="56" viewBox="0 0 56 56" fill="none" xmlns="http://www.w3.org/2000/svg">
<rect width="56" height="56" fill="white"/>
<path d="M47.2034 28.4504C47.2034 27.045 47.0773 25.6937 46.843 24.3964H28.1764V32.0721H38.8431C38.3746 34.5405 36.9692 36.6306 34.8611 38.036V43.027H41.2935C45.0412 39.5675 47.2034 34.4865 47.2034 28.4504Z" fill="#4285F4"/>
<path d="M28.1764 47.8198C33.5277 47.8198 38.0142 46.054 41.2935 43.027L34.8611 38.036C33.0953 39.2252 30.843 39.9459 28.1764 39.9459C23.0232 39.9459 18.6449 36.4685 17.0773 31.7838H10.4827V36.9009C13.744 43.3694 20.4286 47.8198 28.1764 47.8198Z" fill="#34A853"/>
<path d="M17.0773 31.7658C16.6809 30.5766 16.4467 29.3153 16.4467 28C16.4467 26.6847 16.6809 25.4234 17.0773 24.2342V19.1171H10.4827C9.13137 21.7838 8.3566 24.7928 8.3566 28C8.3566 31.2072 9.13137 34.2162 10.4827 36.8829L15.6179 32.8829L17.0773 31.7658Z" fill="#FBBC05"/>
<path d="M28.1764 16.0721C31.0953 16.0721 33.6899 17.0811 35.762 19.027L41.4376 13.3513C37.9962 10.1441 33.5277 8.18018 28.1764 8.18018C20.4286 8.18018 13.744 12.6306 10.4827 19.1171L17.0773 24.2342C18.6449 19.5495 23.0232 16.0721 28.1764 16.0721Z" fill="#EA4335"/>
</svg>
