<svg width="56" height="56" viewBox="0 0 56 56" fill="none" xmlns="http://www.w3.org/2000/svg">
<rect width="56" height="56" fill="white"/>
<path d="M45.9232 8.30664H36.0762C35.7065 8.30661 35.3404 8.37944 34.9988 8.52097C34.6573 8.6625 34.347 8.86994 34.0856 9.13146L10.8434 32.3735C10.5819 32.6349 10.3745 32.9452 10.233 33.2868C10.0915 33.6283 10.0187 33.9944 10.0187 34.3642V44.2111C10.0187 44.5809 10.0915 44.947 10.2329 45.2886C10.3744 45.6302 10.5818 45.9406 10.8432 46.202C11.1047 46.4635 11.4151 46.6709 11.7567 46.8124C12.0983 46.9538 12.4644 47.0267 12.8341 47.0266H22.6811C23.0508 47.0267 23.417 46.9539 23.7585 46.8123C24.1001 46.6708 24.4104 46.4633 24.6718 46.2018L47.9143 22.9597C48.4422 22.4318 48.7387 21.7157 48.7387 20.9691V11.1221C48.7387 10.7524 48.6659 10.3863 48.5244 10.0447C48.383 9.70306 48.1756 9.39266 47.9141 9.13121C47.6527 8.86976 47.3423 8.66238 47.0007 8.52089C46.6591 8.37941 46.2929 8.30661 45.9232 8.30664Z" fill="#28A8EA"/>
<path d="M45.9234 47.0267H36.0762C35.3296 47.0267 34.6135 46.7301 34.0855 46.2021L29.3786 41.4952V32.7003C29.3786 31.3653 29.909 30.085 30.8529 29.141C31.7969 28.197 33.0772 27.6667 34.4122 27.6667H43.2073L47.9141 32.3736C48.4421 32.9016 48.7387 33.6176 48.7387 34.3643V44.2114C48.7387 44.9581 48.4421 45.6741 47.9141 46.2021C47.3862 46.7301 46.6701 47.0267 45.9234 47.0267Z" fill="#0078D4"/>
<path d="M12.834 8.30664H22.6811C23.4278 8.30664 24.1438 8.60325 24.6718 9.13122L29.3787 13.8381V22.633C29.3787 23.2941 29.2485 23.9486 28.9955 24.5593C28.7426 25.17 28.3718 25.7249 27.9044 26.1923C27.437 26.6597 26.8821 27.0305 26.2714 27.2835C25.6607 27.5364 25.0061 27.6666 24.3451 27.6666H15.5501L10.8432 22.9597C10.3153 22.4318 10.0187 21.7157 10.0187 20.9691V11.1219C10.0187 10.3753 10.3153 9.65918 10.8433 9.13121C11.3712 8.60325 12.0873 8.30664 12.834 8.30664Z" fill="#50D9FF"/>
<path opacity="0.2" d="M27.7654 18.2529V39.5005C27.7671 39.6089 27.7563 39.7171 27.7331 39.823C27.6597 40.2594 27.4337 40.6555 27.0953 40.9407C26.757 41.2259 26.3283 41.3816 25.8857 41.38H10.0186V16.3734H25.8857C26.1327 16.3729 26.3773 16.4213 26.6055 16.5156C26.8337 16.6099 27.0411 16.7483 27.2157 16.9229C27.3903 17.0975 27.5288 17.3049 27.6231 17.5331C27.7174 17.7613 27.7658 18.0059 27.7654 18.2529Z" fill="black"/>
<path opacity="0.1" d="M28.572 18.2529V37.8871C28.5654 38.5975 28.2802 39.2769 27.7779 39.7792C27.2755 40.2815 26.5961 40.5667 25.8857 40.5733H10.0186V15.5667H25.8857C26.5974 15.5692 27.2792 15.853 27.7824 16.3562C28.2856 16.8594 28.5695 17.5412 28.572 18.2529Z" fill="black"/>
<path opacity="0.2" d="M27.7654 18.2529V37.8872C27.7658 38.1341 27.7175 38.3787 27.6231 38.6069C27.5288 38.8352 27.3904 39.0425 27.2158 39.2172C27.0412 39.3918 26.8338 39.5302 26.6055 39.6245C26.3773 39.7188 26.1327 39.7671 25.8857 39.7667H10.0186V16.3734H25.8857C26.1327 16.3729 26.3773 16.4213 26.6055 16.5156C26.8337 16.6099 27.0411 16.7483 27.2157 16.9229C27.3903 17.0975 27.5288 17.3049 27.6231 17.5331C27.7174 17.7613 27.7658 18.0059 27.7654 18.2529Z" fill="black"/>
<path opacity="0.1" d="M26.9587 18.2529V37.8872C26.9591 38.1341 26.9108 38.3787 26.8165 38.6069C26.7222 38.8352 26.5837 39.0425 26.4091 39.2172C26.2345 39.3918 26.0271 39.5302 25.7989 39.6245C25.5706 39.7188 25.326 39.7671 25.0791 39.7667H10.0186V16.3734H25.0791C25.326 16.3729 25.5706 16.4213 25.7988 16.5156C26.0271 16.6099 26.2344 16.7483 26.4091 16.9229C26.5837 17.0975 26.7221 17.3049 26.8164 17.5331C26.9107 17.7613 26.9591 18.0059 26.9587 18.2529Z" fill="black"/>
<path d="M25.0767 16.3734H6.25439C5.21488 16.3734 4.37219 17.216 4.37219 18.2555V37.0778C4.37219 38.1173 5.21488 38.96 6.25439 38.96H25.0767C26.1162 38.96 26.9589 38.1173 26.9589 37.0778V18.2555C26.9589 17.216 26.1162 16.3734 25.0767 16.3734Z" fill="#0078D4"/>
<path d="M19.3642 23.5375H14.0828V26.6259H19.0401V28.6052H14.0828V31.813H19.6457V33.784H11.6854V21.5493H19.3642V23.5375Z" fill="white"/>
</svg>
